<svg xmlns="http://www.w3.org/2000/svg" version="1.1" xmlns:xlink="http://www.w3.org/1999/xlink" xmlns:svgjs="http://svgjs.dev/svgjs" width="2560" height="1440" preserveAspectRatio="none" viewBox="0 0 2560 1440"><g mask="url(&quot;#SvgjsMask1119&quot;)" fill="none"><rect width="2560" height="1440" x="0" y="0" fill="url(&quot;#SvgjsLinearGradient1120&quot;)"></rect><path d="M2560 0L2473.03 0L2560 702.35z" fill="rgba(255, 255, 255, .1)"></path><path d="M2473.03 0L2560 702.35L2560 1026.16L2234.21 0z" fill="rgba(255, 255, 255, .075)"></path><path d="M2234.21 0L2560 1026.16L2560 1027.0700000000002L2122.54 0z" fill="rgba(255, 255, 255, .05)"></path><path d="M2122.54 0L2560 1027.0700000000002L2560 1204.7400000000002L1187.23 0z" fill="rgba(255, 255, 255, .025)"></path><path d="M0 1440L1159.66 1440L0 1249.43z" fill="rgba(0, 0, 0, .1)"></path><path d="M0 1249.43L1159.66 1440L1239.4 1440L0 1077.26z" fill="rgba(0, 0, 0, .075)"></path><path d="M0 1077.26L1239.4 1440L2020.52 1440L0 688.7z" fill="rgba(0, 0, 0, .05)"></path><path d="M0 688.7L2020.52 1440L2214.83 1440L0 678.76z" fill="rgba(0, 0, 0, .025)"></path></g><defs><mask id="SvgjsMask1119"><rect width="2560" height="1440" fill="#ffffff"></rect></mask><linearGradient x1="50%" y1="0%" x2="50%" y2="100%" gradientUnits="userSpaceOnUse" id="SvgjsLinearGradient1120"><stop stop-color="rgba(23, 54, 121, 1)" offset="0"></stop><stop stop-color="rgba(35, 143, 186, 1)" offset="1"></stop></linearGradient></defs></svg>